<svg id="Capa_1" enable-background="new 0 0 512 512" height="512" viewBox="0 0 512 512" width="512" xmlns="http://www.w3.org/2000/svg"><g><g><path d="m453.31 461.125c0 24.508-19.907 44.375-44.464 44.375h-305.692c-24.557 0-44.464-19.867-44.464-44.375v-408.25c0-24.508 19.907-44.375 44.464-44.375h190.303c8.857 0 17.35 3.516 23.606 9.773l126.505 126.521c6.239 6.239 9.742 14.694 9.742 23.508z" fill="#f9f8f9"/><path d="m133.15 505.5h-30c-24.55 0-44.46-19.87-44.46-44.38v-408.24c0-24.51 19.91-44.38 44.46-44.38h30c-24.55 0-44.46 19.87-44.46 44.38v408.24c0 24.51 19.91 44.38 44.46 44.38z" fill="#e3e0e4"/><path d="m453.31 168.3v16.24h-115.96c-33.12 0-60.06-26.95-60.06-60.07v-115.97h16.17c8.85 0 17.35 3.52 23.6 9.77l126.51 126.52c6.24 6.24 9.74 14.7 9.74 23.51z" fill="#e3e0e4"/><path d="m450.32 154.54h-112.97c-16.6 0-30.06-13.46-30.06-30.07v-112.96c3.61 1.63 6.92 3.91 9.77 6.76l126.51 126.52c2.85 2.85 5.12 6.15 6.75 9.75z" fill="#80e29e"/><path d="m435 439.5h-358c-22.091 0-40-17.909-40-40v-146c0-22.091 17.909-40 40-40h358c22.091 0 40 17.909 40 40v146c0 22.091-17.909 40-40 40z" fill="#80e29e"/><path d="m102 439.5h-25c-22.09 0-40-17.91-40-40v-146c0-22.09 17.91-40 40-40h25c-22.09 0-40 17.91-40 40v146c0 22.09 17.91 40 40 40z" fill="#77d192"/></g><g><path d="m460.811 212.656v-45.354c0-10.879-4.24-21.111-11.938-28.811l-126.506-126.52c-7.718-7.72-17.985-11.971-28.91-11.971h-190.303c-28.653 0-51.965 23.271-51.965 51.875v32.649c0 4.143 3.357 7.5 7.5 7.5s7.5-3.357 7.5-7.5v-32.649c0-20.333 16.582-36.875 36.965-36.875h190.303c2.165 0 4.288.264 6.334.775v107.696c0 20.714 16.85 37.566 37.561 37.566h17.681c4.143 0 7.5-3.357 7.5-7.5s-3.357-7.5-7.5-7.5h-17.681c-12.439 0-22.561-10.123-22.561-22.566v-97.863l120.415 120.429h-45.173c-4.143 0-7.5 3.357-7.5 7.5s3.357 7.5 7.5 7.5h55.013c.505 2.025.765 4.125.765 6.265v38.954c-3.476-.812-7.092-1.256-10.811-1.256h-358c-3.719 0-7.335.444-10.811 1.256v-86.731c0-4.143-3.357-7.5-7.5-7.5s-7.5 3.357-7.5 7.5v93.131c-13.04 8.477-21.689 23.165-21.689 39.844v146c0 16.679 8.649 31.367 21.689 39.844v21.781c0 28.604 23.312 51.875 51.965 51.875h278.824c4.143 0 7.5-3.357 7.5-7.5s-3.357-7.5-7.5-7.5h-278.824c-20.383 0-36.965-16.542-36.965-36.875v-15.381c3.476.813 7.092 1.256 10.811 1.256h27.224c4.143 0 7.5-3.357 7.5-7.5s-3.357-7.5-7.5-7.5h-27.224c-17.921 0-32.5-14.579-32.5-32.5v-146c0-17.921 14.579-32.5 32.5-32.5h358c17.921 0 32.5 14.579 32.5 32.5v146c0 17.921-14.579 32.5-32.5 32.5h-295.776c-4.143 0-7.5 3.357-7.5 7.5s3.357 7.5 7.5 7.5h295.776c3.719 0 7.335-.443 10.811-1.256v15.381c0 17.845-12.75 33.104-30.317 36.282-4.076.737-6.782 4.64-6.045 8.715.655 3.625 3.813 6.166 7.371 6.166.443 0 .893-.039 1.344-.121 24.712-4.471 42.647-25.938 42.647-51.042v-21.781c13.041-8.477 21.689-23.165 21.689-39.844v-146c0-16.679-8.649-31.367-21.689-39.844z"/><path d="m327.937 389.505c3.864 1.476 8.203-.468 9.678-4.34l8.82-23.159h58.422l8.732 23.139c1.133 3.003 3.987 4.854 7.018 4.854.88 0 1.775-.156 2.647-.485 3.875-1.462 5.831-5.789 4.368-9.665l-42.415-112.392c-.025-.068-.053-.137-.08-.205-1.562-3.796-5.222-6.247-9.326-6.247-.003 0-.006 0-.01 0-4.107.004-7.768 2.463-9.323 6.266-.023.057-.046.113-.067.171l-42.804 112.387c-1.475 3.868.468 8.201 4.34 9.676zm47.842-104.547 23.416 62.048h-47.048z"/><path d="m214.072 267.251c-1.562-3.796-5.222-6.247-9.326-6.247-.003 0-.006 0-.01 0-4.107.004-7.768 2.463-9.323 6.266-.023.057-.046.113-.067.171l-42.804 112.387c-1.475 3.87.469 8.203 4.34 9.678 3.866 1.476 8.203-.468 9.678-4.34l8.82-23.159h58.422l8.732 23.139c1.133 3.003 3.987 4.854 7.018 4.854.88 0 1.775-.156 2.647-.485 3.875-1.462 5.831-5.789 4.368-9.665l-42.415-112.392c-.025-.07-.052-.139-.08-.207zm-32.979 79.755 23.632-62.048 23.416 62.048z"/><path d="m139.051 268.504c0-4.143-3.357-7.5-7.5-7.5s-7.5 3.357-7.5 7.5v91.107c0 5.755-3.015 11.003-7.867 13.696-9.556 5.306-19.036-3.774-19.497-4.225-2.923-2.911-7.649-2.915-10.578-.006-2.938 2.92-2.953 7.669-.034 10.606.545.549 10.505 10.371 23.811 10.371 4.25 0 8.845-1.003 13.579-3.632 9.614-5.337 15.587-15.61 15.587-26.812v-91.105z"/><path d="m332.97 261.596c-3.927-1.309-8.176.821-9.481 4.753l-32.642 98.254-34.211-98.558c-1.358-3.914-5.634-5.99-9.544-4.626-3.913 1.358-5.984 5.631-4.626 9.544l38.992 112.332c1.426 4.016 5.234 6.702 9.491 6.702.022 0 .045 0 .068-.001 4.284-.028 8.089-2.773 9.484-6.88l37.221-112.039c1.307-3.931-.821-8.176-4.752-9.481z"/></g></g></svg>